<svg width="74" height="74" viewBox="0 0 74 74" fill="none" xmlns="http://www.w3.org/2000/svg">
<mask id="path-1-inside-1_15_93" fill="white">
<path d="M0 37C0 16.5655 16.5655 0 37 0C57.4345 0 74 16.5655 74 37C74 57.4345 57.4345 74 37 74C16.5655 74 0 57.4345 0 37Z"/>
</mask>
<path d="M37 74V72C17.67 72 2 56.33 2 37H0H-2C-2 58.5391 15.4609 76 37 76V74ZM74 37H72C72 56.33 56.33 72 37 72V74V76C58.5391 76 76 58.5391 76 37H74ZM37 0V2C56.33 2 72 17.67 72 37H74H76C76 15.4609 58.5391 -2 37 -2V0ZM37 0V-2C15.4609 -2 -2 15.4609 -2 37H0H2C2 17.67 17.67 2 37 2V0Z" fill="#ECECEC" mask="url(#path-1-inside-1_15_93)"/>
<path d="M37 43.2497C36.5106 43.2499 36.0319 43.1065 35.6233 42.8372C35.2146 42.5678 34.894 42.1845 34.7012 41.7347C34.2978 41.6394 33.9008 41.5192 33.5124 41.3747L33.4911 41.3672C32.3506 40.9391 31.2979 40.3062 30.3848 39.4996C29.1615 38.4205 28.2208 37.0585 27.6446 35.5324C27.0685 34.0062 26.8744 32.3623 27.0793 30.744C27.2842 29.1257 27.8819 27.582 28.8203 26.2477C29.7587 24.9134 31.0092 23.8288 32.4629 23.0887C33.9166 22.3485 35.5292 21.9752 37.1603 22.0013C38.7913 22.0274 40.3912 22.4521 41.8205 23.2383C43.2498 24.0246 44.465 25.1485 45.3602 26.5122C46.2554 27.8759 46.8035 29.4378 46.9565 31.0619C47.0053 31.5782 46.5815 31.9994 46.0628 31.9994C45.5452 31.9994 45.1315 31.5782 45.0715 31.0631C44.9062 29.6422 44.3688 28.2901 43.5134 27.1435C42.6581 25.9968 41.5152 25.0964 40.2003 24.533C38.8854 23.9697 37.445 23.7635 36.0249 23.9353C34.6047 24.1071 33.2551 24.6508 32.1124 25.5114C30.9697 26.372 30.0745 27.519 29.5173 28.8365C28.96 30.154 28.7605 31.5953 28.9388 33.0147C29.1171 34.434 29.667 35.7811 30.5329 36.9198C31.3987 38.0585 32.5499 38.9484 33.8699 39.4996L33.9199 39.5209C34.1699 39.6234 34.4266 39.7138 34.6899 39.7921C34.9307 39.2054 35.3855 38.7321 35.9622 38.4681C36.5389 38.2042 37.1944 38.1692 37.7958 38.3704C38.3973 38.5716 38.8998 38.9939 39.2016 39.5517C39.5035 40.1095 39.582 40.7612 39.4213 41.3747C39.2827 41.9115 38.9697 42.3869 38.5314 42.7263C38.0931 43.0658 37.5544 43.2499 37 43.2497ZM28.2497 41.3747H29.711C29.0122 40.83 28.3758 40.2095 27.8135 39.5246C26.9006 39.6316 26.0588 40.07 25.4479 40.7567C24.837 41.4435 24.4995 42.3306 24.4996 43.2497V44.1435C24.4996 48.7912 29.7623 52 37 52C44.2377 52 49.5004 48.6149 49.5004 44.1435V43.2497C49.5004 42.2552 49.1053 41.3013 48.402 40.598C47.6987 39.8947 46.7448 39.4996 45.7503 39.4996H41.1939C41.375 40.1073 41.422 40.7471 41.3314 41.3747H45.7503L45.9315 41.3834C46.3952 41.4285 46.8256 41.6446 47.1387 41.9896C47.4519 42.3346 47.6253 42.7838 47.6253 43.2497V44.1435L47.6191 44.3448C47.4441 47.4949 43.1577 50.1249 37 50.1249C30.6111 50.1249 26.3747 47.4861 26.3747 44.1435V43.2497L26.3834 43.0685C26.4285 42.6047 26.6446 42.1744 26.9896 41.8613C27.3346 41.5481 27.7838 41.3747 28.2497 41.3747ZM43.2502 31.9994C43.2504 33.1317 42.943 34.2427 42.3609 35.2139C41.7788 36.185 40.9438 36.9798 39.9451 37.5133C39.1394 36.7804 38.0892 36.3743 37 36.3745C37.5745 36.3745 38.1435 36.2614 38.6743 36.0415C39.2051 35.8216 39.6874 35.4994 40.0937 35.0931C40.5 34.6868 40.8222 34.2045 41.0421 33.6737C41.262 33.1429 41.3751 32.574 41.3751 31.9994C41.3751 31.4249 41.262 30.8559 41.0421 30.3251C40.8222 29.7943 40.5 29.312 40.0937 28.9057C39.6874 28.4995 39.2051 28.1772 38.6743 27.9573C38.1435 27.7375 37.5745 27.6243 37 27.6243C35.8396 27.6243 34.7268 28.0852 33.9063 28.9057C33.0858 29.7262 32.6249 30.8391 32.6249 31.9994C32.6249 33.1598 33.0858 34.2726 33.9063 35.0931C34.7268 35.9136 35.8396 36.3745 37 36.3745C35.865 36.3745 34.8324 36.8071 34.0562 37.5146C33.058 36.9815 32.2233 36.1874 31.6411 35.217C31.1454 34.3912 30.8473 33.462 30.77 32.502C30.6927 31.5419 30.8383 30.577 31.1955 29.6825C31.5526 28.7881 32.1117 27.9882 32.829 27.3455C33.5463 26.7028 34.4025 26.2345 35.3306 25.9772C36.2588 25.72 37.2338 25.6807 38.1797 25.8625C39.1255 26.0443 40.0165 26.4422 40.7832 27.0252C41.5499 27.6082 42.1714 28.3605 42.5994 29.2233C43.0273 30.0862 43.25 31.0363 43.2502 31.9994Z" fill="black"/>
</svg>
