<svg width="74" height="74" viewBox="0 0 74 74" fill="none" xmlns="http://www.w3.org/2000/svg">
<mask id="path-1-inside-1_15_82" fill="white">
<path d="M0 37C0 16.5655 16.5655 0 37 0C57.4345 0 74 16.5655 74 37C74 57.4345 57.4345 74 37 74C16.5655 74 0 57.4345 0 37Z"/>
</mask>
<path d="M37 74V72C17.67 72 2 56.33 2 37H0H-2C-2 58.5391 15.4609 76 37 76V74ZM74 37H72C72 56.33 56.33 72 37 72V74V76C58.5391 76 76 58.5391 76 37H74ZM37 0V2C56.33 2 72 17.67 72 37H74H76C76 15.4609 58.5391 -2 37 -2V0ZM37 0V-2C15.4609 -2 -2 15.4609 -2 37H0H2C2 17.67 17.67 2 37 2V0Z" fill="#ECECEC" mask="url(#path-1-inside-1_15_82)"/>
<path d="M37.3504 23.9523C37.1255 23.8622 36.8745 23.8622 36.6496 23.9523L25.4055 28.4496L37 33.0862L48.5944 28.4496L37.3504 23.9523ZM50.1884 29.8419L37.942 34.7404V49.6659L50.1884 44.7673V29.8419ZM36.058 49.6678V34.7385L23.8116 29.8419V44.7692L36.058 49.6678ZM35.9506 22.2021C36.6242 21.9326 37.3757 21.9326 38.0494 22.2021L51.4808 27.5754C51.6554 27.6454 51.8051 27.766 51.9105 27.9218C52.016 28.0776 52.0724 28.2615 52.0724 28.4496V44.7692C52.0722 45.1457 51.9591 45.5135 51.7479 45.8251C51.5367 46.1367 51.2369 46.378 50.8873 46.5176L37.3504 51.9324C37.1255 52.0225 36.8745 52.0225 36.6496 51.9324L23.1145 46.5176C22.7646 46.3783 22.4644 46.1372 22.2528 45.8255C22.0413 45.5139 21.928 45.1459 21.9276 44.7692V28.4496C21.9276 28.2615 21.984 28.0776 22.0894 27.9218C22.1949 27.766 22.3445 27.6454 22.5192 27.5754L35.9506 22.2021Z" fill="black"/>
</svg>
