<svg width="1632" height="46" viewBox="0 0 1632 46" fill="none" xmlns="http://www.w3.org/2000/svg">
<circle cx="1609" cy="23" r="23" fill="white"/>
<path fill-rule="evenodd" clip-rule="evenodd" d="M1605.33 26.6345L1611.53 22.5L1605.33 18.3655C1605.25 18.3112 1605.18 18.2414 1605.13 18.1601C1605.07 18.0788 1605.03 17.9875 1605.01 17.8915C1605 17.7955 1605 17.6967 1605.01 17.6007C1605.03 17.5047 1605.07 17.4133 1605.13 17.3319C1605.23 17.1674 1605.41 17.0532 1605.6 17.0145C1605.7 16.9953 1605.79 16.9952 1605.89 17.0142C1605.99 17.0332 1606.08 17.0709 1606.16 17.1252L1613.19 21.812C1613.3 21.8875 1613.4 21.9898 1613.46 22.1099C1613.52 22.2299 1613.56 22.3639 1613.56 22.5C1613.56 22.6361 1613.52 22.7701 1613.46 22.8901C1613.4 23.0102 1613.3 23.1125 1613.19 23.188L1606.16 27.8748C1606.08 27.9291 1605.99 27.9668 1605.89 27.9858C1605.79 28.0048 1605.7 28.0047 1605.6 27.9855C1605.5 27.9663 1605.41 27.9284 1605.33 27.874C1605.25 27.8195 1605.18 27.7495 1605.13 27.6681C1605.07 27.5867 1605.03 27.4953 1605.01 27.3993C1605 27.3033 1605 27.2045 1605.01 27.1085C1605.03 27.0125 1605.07 26.9212 1605.13 26.8399C1605.18 26.7586 1605.25 26.6888 1605.33 26.6345Z" fill="black"/>
<circle opacity="0.4" cx="23" cy="23" r="23" transform="rotate(-180 23 23)" fill="white"/>
<path fill-rule="evenodd" clip-rule="evenodd" d="M26.6681 19.3655L20.4664 23.5L26.6681 27.6345C26.7495 27.6888 26.8195 27.7586 26.874 27.8399C26.9284 27.9212 26.9663 28.0125 26.9855 28.1085C27.0047 28.2045 27.0048 28.3033 26.9858 28.3993C26.9668 28.4953 26.9291 28.5867 26.8748 28.6681C26.7652 28.8326 26.5947 28.9468 26.4008 28.9855C26.3048 29.0047 26.206 29.0048 26.11 28.9858C26.014 28.9668 25.9226 28.9291 25.8412 28.8748L18.8109 24.188C18.6977 24.1125 18.6048 24.0102 18.5406 23.8901C18.4764 23.7701 18.4428 23.6361 18.4428 23.5C18.4428 23.3639 18.4764 23.2299 18.5406 23.1099C18.6048 22.9898 18.6977 22.8875 18.8109 22.812L25.8412 18.1252C25.9226 18.0709 26.014 18.0332 26.11 18.0142C26.206 17.9952 26.3048 17.9953 26.4008 18.0145C26.4968 18.0337 26.5881 18.0716 26.6694 18.126C26.7507 18.1805 26.8205 18.2505 26.8748 18.3319C26.9291 18.4133 26.9668 18.5047 26.9858 18.6007C27.0048 18.6967 27.0047 18.7955 26.9855 18.8915C26.9663 18.9875 26.9284 19.0788 26.874 19.1601C26.8195 19.2414 26.7495 19.3112 26.6681 19.3655Z" fill="black"/>
</svg>
