<svg width="9" height="11" viewBox="0 0 9 11" fill="none" xmlns="http://www.w3.org/2000/svg">
<path fill-rule="evenodd" clip-rule="evenodd" d="M0.331906 9.63448L6.53362 5.5L0.331906 1.36552C0.250464 1.31123 0.180513 1.24143 0.126048 1.1601C0.0715832 1.07877 0.0336704 0.98751 0.0144743 0.891529C-0.00472173 0.795549 -0.00482529 0.696727 0.01417 0.600707C0.0331652 0.504686 0.0708872 0.413348 0.125182 0.331906C0.234835 0.167426 0.405336 0.0532426 0.599177 0.0144743C0.695158 -0.00472173 0.793979 -0.00482529 0.89 0.01417C0.98602 0.0331652 1.07736 0.0708872 1.1588 0.125182L8.18906 4.81202C8.30231 4.88754 8.39517 4.98984 8.45939 5.10986C8.52361 5.22987 8.55722 5.36388 8.55722 5.5C8.55722 5.63612 8.52361 5.77013 8.45939 5.89014C8.39517 6.01016 8.30231 6.11246 8.18906 6.18798L1.1588 10.8748C1.07736 10.9291 0.98602 10.9668 0.89 10.9858C0.793979 11.0048 0.695158 11.0047 0.599177 10.9855C0.503197 10.9663 0.411938 10.9284 0.330609 10.874C0.249281 10.8195 0.179477 10.7495 0.125182 10.6681C0.0708872 10.5867 0.0331652 10.4953 0.01417 10.3993C-0.00482529 10.3033 -0.00472173 10.2045 0.0144743 10.1085C0.0336704 10.0125 0.0715832 9.92123 0.126048 9.8399C0.180513 9.75857 0.250464 9.68877 0.331906 9.63448Z" fill="black"/>
</svg>
