<svg width="21" height="18" viewBox="0 0 21 18" fill="none" xmlns="http://www.w3.org/2000/svg">
<path d="M14.9396 0C13.1316 0 11.5269 0.713683 10.4398 1.94035C9.35258 0.713683 7.74791 0 5.93986 0C4.36509 0.00190534 2.85538 0.628322 1.74185 1.74185C0.628322 2.85538 0.00190534 4.36509 0 5.93986C0 12.4503 9.52267 17.6522 9.92766 17.8709C10.085 17.9556 10.261 18 10.4398 18C10.6185 18 10.7945 17.9556 10.9518 17.8709C11.3568 17.6522 20.8795 12.4503 20.8795 5.93986C20.8776 4.36509 20.2512 2.85538 19.1377 1.74185C18.0241 0.628322 16.5144 0.00190534 14.9396 0ZM14.4456 12.8121C13.1921 13.8757 11.8522 14.833 10.4398 15.674C9.02728 14.833 7.68738 13.8757 6.43395 12.8121C4.48369 11.139 2.15995 8.58759 2.15995 5.93986C2.15995 4.93736 2.55819 3.97593 3.26706 3.26706C3.97593 2.55819 4.93736 2.15995 5.93986 2.15995C7.54182 2.15995 8.88279 3.00593 9.43987 4.3685C9.52096 4.56713 9.65936 4.73711 9.83744 4.85676C10.0155 4.97641 10.2252 5.04031 10.4398 5.04031C10.6543 5.04031 10.864 4.97641 11.0421 4.85676C11.2201 4.73711 11.3585 4.56713 11.4396 4.3685C11.9967 3.00593 13.3377 2.15995 14.9396 2.15995C15.9421 2.15995 16.9036 2.55819 17.6124 3.26706C18.3213 3.97593 18.7196 4.93736 18.7196 5.93986C18.7196 8.58759 16.3958 11.139 14.4456 12.8121Z" fill="white"/>
</svg>
