<svg width="18" height="18" viewBox="0 0 18 18" fill="none" xmlns="http://www.w3.org/2000/svg">
<path d="M5.4 18C4.905 18 4.4814 17.8239 4.1292 17.4717C3.777 17.1195 3.6006 16.6956 3.6 16.2C3.5994 15.7044 3.7758 15.2808 4.1292 14.9292C4.4826 14.5776 4.9062 14.4012 5.4 14.4C5.8938 14.3988 6.31769 14.5752 6.67169 14.9292C7.02569 15.2832 7.20179 15.7068 7.19999 16.2C7.19819 16.6932 7.02209 17.1171 6.67169 17.4717C6.32129 17.8263 5.8974 18.0024 5.4 18ZM14.4 18C13.905 18 13.4814 17.8239 13.1292 17.4717C12.777 17.1195 12.6006 16.6956 12.6 16.2C12.5994 15.7044 12.7758 15.2808 13.1292 14.9292C13.4826 14.5776 13.9062 14.4012 14.4 14.4C14.8938 14.3988 15.3177 14.5752 15.6717 14.9292C16.0257 15.2832 16.2018 15.7068 16.2 16.2C16.1982 16.6932 16.0221 17.1171 15.6717 17.4717C15.3213 17.8263 14.8974 18.0024 14.4 18ZM4.635 3.6L6.79499 8.09999H13.095L15.57 3.6H4.635ZM3.78 1.8H17.055C17.4 1.8 17.6625 1.9539 17.8425 2.2617C18.0225 2.5695 18.03 2.8806 17.865 3.195L14.67 8.95499C14.505 9.25499 14.2839 9.48749 14.0067 9.65249C13.7295 9.81749 13.4256 9.89999 13.095 9.89999H6.38999L5.4 11.7H15.3C15.555 11.7 15.7689 11.7864 15.9417 11.9592C16.1145 12.132 16.2006 12.3456 16.2 12.6C16.1994 12.8544 16.113 13.0683 15.9408 13.2417C15.7686 13.4151 15.555 13.5012 15.3 13.5H5.4C4.725 13.5 4.215 13.2039 3.87 12.6117C3.525 12.0195 3.51 11.4306 3.825 10.845L5.04 8.63999L1.8 1.8H0.900002C0.645002 1.8 0.431403 1.7136 0.259203 1.5408C0.087003 1.368 0.000603103 1.1544 3.10344e-06 0.899999C-0.000596896 0.645599 0.085803 0.432 0.259203 0.2592C0.432603 0.0864 0.646202 0 0.900002 0H2.3625C2.5275 0 2.685 0.045 2.835 0.135C2.985 0.225 3.0975 0.3525 3.1725 0.517499L3.78 1.8Z" fill="white"/>
</svg>
