<svg width="18" height="18" viewBox="0 0 18 18" fill="none" xmlns="http://www.w3.org/2000/svg">
<path fill-rule="evenodd" clip-rule="evenodd" d="M8.00614 1.80565e-08C6.72938 0.000108791 5.47115 0.305544 4.33643 0.890824C3.20172 1.4761 2.22342 2.32426 1.48316 3.36452C0.742898 4.40478 0.26214 5.60699 0.0809963 6.87084C-0.100148 8.13469 0.0235742 9.42353 0.44184 10.6298C0.860106 11.8362 1.56079 12.9249 2.48543 13.8054C3.41006 14.6858 4.53184 15.3324 5.75718 15.6911C6.98252 16.0498 8.27587 16.1103 9.52934 15.8676C10.7828 15.6248 11.9601 15.0858 12.9628 14.2955L16.4029 17.7356C16.5806 17.9072 16.8186 18.0021 17.0655 18C17.3125 17.9978 17.5488 17.8988 17.7234 17.7241C17.8981 17.5495 17.9971 17.3132 17.9993 17.0662C18.0014 16.8192 17.9065 16.5813 17.7349 16.4036L14.2948 12.9635C15.2255 11.7829 15.8049 10.364 15.9669 8.86942C16.1289 7.3748 15.8668 5.86478 15.2106 4.51217C14.5545 3.15956 13.5307 2.019 12.2566 1.22102C10.9825 0.423049 9.50951 -0.000100927 8.00614 1.80565e-08ZM1.88328 8.00682C1.88328 6.38294 2.52836 4.82556 3.67662 3.6773C4.82488 2.52904 6.38226 1.88396 8.00614 1.88396C9.63003 1.88396 11.1874 2.52904 12.3357 3.6773C13.4839 4.82556 14.129 6.38294 14.129 8.00682C14.129 9.63071 13.4839 11.1881 12.3357 12.3363C11.1874 13.4846 9.63003 14.1297 8.00614 14.1297C6.38226 14.1297 4.82488 13.4846 3.67662 12.3363C2.52836 11.1881 1.88328 9.63071 1.88328 8.00682Z" fill="white"/>
</svg>
