<svg width="549" height="80" viewBox="0 0 549 80" fill="none" xmlns="http://www.w3.org/2000/svg">
<g filter="url(#filter0_d_2_5)">
<path d="M1 6C1 2.68629 3.68629 0 7 0H542C545.314 0 548 2.68629 548 6V71C548 74.3137 545.314 77 542 77H7C3.68629 77 1 74.3137 1 71V6Z" fill="white"/>
<path d="M7 0.5H542C545.038 0.5 547.5 2.96243 547.5 6V71C547.5 74.0376 545.038 76.5 542 76.5H7C3.96243 76.5 1.5 74.0376 1.5 71V6C1.5 2.96243 3.96243 0.5 7 0.5Z" stroke="#53AB34"/>
</g>
<defs>
<filter id="filter0_d_2_5" x="0" y="0" width="549" height="80" filterUnits="userSpaceOnUse" color-interpolation-filters="sRGB">
<feFlood flood-opacity="0" result="BackgroundImageFix"/>
<feColorMatrix in="SourceAlpha" type="matrix" values="0 0 0 0 0 0 0 0 0 0 0 0 0 0 0 0 0 0 127 0" result="hardAlpha"/>
<feOffset dy="2"/>
<feGaussianBlur stdDeviation="0.5"/>
<feComposite in2="hardAlpha" operator="out"/>
<feColorMatrix type="matrix" values="0 0 0 0 0 0 0 0 0 0 0 0 0 0 0 0 0 0 0.25 0"/>
<feBlend mode="normal" in2="BackgroundImageFix" result="effect1_dropShadow_2_5"/>
<feBlend mode="normal" in="SourceGraphic" in2="effect1_dropShadow_2_5" result="shape"/>
</filter>
</defs>
</svg>
